<!--?xml version="1.0" standalone="no"?-->
              <svg id="sw-js-blob-svg" viewBox="0 0 100 100" xmlns="http://www.w3.org/2000/svg" version="1.1">
                    <defs> 
                        <linearGradient id="sw-gradient" x1="0" x2="1" y1="1" y2="0">
                            <stop id="stop1" stop-color="rgba(130, 255, 31, 1)" offset="0%"></stop>
                            <stop id="stop2" stop-color="rgba(17, 17, 17, 1)" offset="100%"></stop>
                        </linearGradient>
                    </defs>
                <path fill="none" d="M17.6,-27.5C24.4,-26.5,32.8,-25.1,34.3,-20.5C35.8,-15.8,30.5,-7.9,28.4,-1.2C26.3,5.5,27.4,11,27.2,17.8C26.9,24.6,25.2,32.7,20.4,36.7C15.7,40.7,7.8,40.6,1,38.9C-5.9,37.3,-11.8,34,-15.6,29.4C-19.4,24.9,-21,19,-26.2,13.8C-31.5,8.7,-40.4,4.3,-42.5,-1.3C-44.7,-6.9,-40.2,-13.7,-35.7,-20.1C-31.1,-26.4,-26.6,-32.3,-20.6,-33.8C-14.7,-35.4,-7.3,-32.7,-1,-31C5.3,-29.3,10.7,-28.5,17.6,-27.5Z" width="100%" height="100%" transform="translate(50 50)" stroke-width="1" style="transition: 0.3s;" stroke="url(#sw-gradient)"></path>
              </svg>