<!DOCTYPE svg PUBLIC "-//W3C//DTD SVG 1.1//EN" "http://www.w3.org/Graphics/SVG/1.1/DTD/svg11.dtd">
<!-- Uploaded to: SVG Repo, www.svgrepo.com, Transformed by: SVG Repo Mixer Tools -->
<svg width="64px" height="64px" viewBox="-2.4 -2.4 28.80 28.80" fill="none" xmlns="http://www.w3.org/2000/svg">
<g id="SVGRepo_bgCarrier" stroke-width="0">
<path transform="translate(-2.4, -2.4), scale(0.8999999999999999)" d="M16,26.36673495732248C18.018074605847303,26.78023928354298,20.24156225238909,27.461886229368424,22.072824065573514,26.518439827000318C23.90827275940893,25.572836388724575,25.1134603920008,23.508615706618784,25.488659003564607,21.47827982995659C25.838222706637485,19.586663748090945,23.755337139506977,17.90582042795301,24.016593106091022,16C24.34499718523705,13.604344846768313,27.171275017121562,11.997542985958573,27.119708754947528,9.58003315702081C27.063659153242448,6.952337114736989,25.834453515899177,4.185411100810028,23.73097083624453,2.6095657197912363C21.600583927724333,1.0135647628802735,18.638723257347902,0.8990096231601952,16.000000000000004,1.249590577557683C13.515427364088707,1.579691069734011,10.987240312882548,2.6021715999203665,9.370569545775655,4.517489628039007C7.867053390396675,6.298750016088433,9.095220985395942,9.35492261790512,7.62897889045159,11.16698870901018C5.716872900676759,13.5300789780843,1.1882267983051034,13.169640010306008,0.07944040559232235,15.999999999999996C-0.9231863971461161,18.559370141730064,0.5312221921376059,22.0161235919169,2.735569533926089,23.65822250023483C5.047175981910244,25.38022263729839,8.387779872941469,23.716364647578892,11.212003515101966,24.293053178304575C12.945631016426065,24.647048903586242,14.266613042552875,26.011563248684066,16,26.36673495732248" fill="#82ff1f" strokewidth="0"/>
</g>
<g id="SVGRepo_tracerCarrier" stroke-linecap="round" stroke-linejoin="round"/>
<g id="SVGRepo_iconCarrier"> <path d="M7 8L3 11.6923L7 16M17 8L21 11.6923L17 16M14 4L10 20" stroke="#1a1a1a" stroke-width="1.44" stroke-linecap="round" stroke-linejoin="round"/> </g>
</svg>