<!DOCTYPE svg PUBLIC "-//W3C//DTD SVG 1.1//EN" "http://www.w3.org/Graphics/SVG/1.1/DTD/svg11.dtd">
<!-- Uploaded to: SVG Repo, www.svgrepo.com, Transformed by: SVG Repo Mixer Tools -->
<svg width="64px" height="64px" viewBox="-2.4 -2.4 28.80 28.80" fill="none" xmlns="http://www.w3.org/2000/svg" stroke="#fafafa">
<g id="SVGRepo_bgCarrier" stroke-width="0">
<path transform="translate(-2.4, -2.4), scale(0.8999999999999999)" d="M16,31.15333402989542C18.64659441447523,30.257983104031574,18.542009937340623,25.990303856706166,20.943279553095206,24.562011341977275C23.292260491078178,23.164820510531374,26.957486535097793,25.358029201192025,28.927728667190202,23.463827626012705C30.766171594063028,21.69633852848667,30.335238940454676,18.50349051663536,29.849003052886793,16C29.40127239525598,13.694761978610295,27.60787216963539,12.005467432475609,26.320763531020532,10.041304397122827C25.108468149051756,8.191308440484342,24.56234273673178,5.528742499997807,22.486633130075305,4.764821848650042C20.369389953041626,3.9856156525258752,18.246015642184158,6.455793013757058,16,6.242967494051246C13.382766791248558,5.994966541884163,11.318314780659417,2.848347279937305,8.76255070122288,3.4643700973142746C6.342311878494148,4.047726890806407,5.465284578117806,7.0496642895114485,4.07766974227723,9.116639416336131C2.597834564945325,11.320984904969022,0.5045613322426077,13.349671328579456,0.3470522252952364,15.999999999999996C0.18779315056536272,18.6797745230155,1.7620977582643904,21.125171603548555,3.230443127918889,23.372507097528253C4.643372929649047,25.535027822932957,6.451027222082098,27.374372364932345,8.656965605147615,28.7185086536101C10.897262160391676,30.08358028046065,13.51493207660277,31.99404005340958,16,31.15333402989542" fill="#111111" strokewidth="0"/>
</g>
<g id="SVGRepo_tracerCarrier" stroke-linecap="round" stroke-linejoin="round"/>
<g id="SVGRepo_iconCarrier"> <path d="M7 8L3 11.6923L7 16M17 8L21 11.6923L17 16M14 4L10 20" stroke="#fafafa" stroke-width="1.08" stroke-linecap="round" stroke-linejoin="round"/> </g>
</svg>