<!DOCTYPE svg PUBLIC "-//W3C//DTD SVG 1.1//EN" "http://www.w3.org/Graphics/SVG/1.1/DTD/svg11.dtd">
<!-- Uploaded to: SVG Repo, www.svgrepo.com, Transformed by: SVG Repo Mixer Tools -->
<svg fill="#1a1a1a" width="64px" height="64px" viewBox="-192 -192 2304.00 2304.00" xmlns="http://www.w3.org/2000/svg" stroke="#1a1a1a" stroke-width="0.019200000000000002">
<g id="SVGRepo_bgCarrier" stroke-width="0">
<path transform="translate(-192, -192), scale(72)" d="M16,25.53188523628256C17.320323410089344,25.11321938224819,18.766970967806365,25.589211817948694,20.096602093543925,25.201118950152654C21.514385628482948,24.787296148220822,22.650969103570375,23.811516604348725,23.994642276113392,23.198408238126987C26.04852092726567,22.261238240275176,29.08816980917598,22.585447089746946,30.1707528398925,20.604356708129465C31.160601933335453,18.79296629960374,28.784108008000473,16.730062876495325,28.655118911425866,14.669893404618387C28.5193207978305,12.500972655523586,30.129288225273342,10.3110585904457,29.398147856547958,8.264575728379633C28.678309463907404,6.249727421529563,26.561665916602774,5.102199429177876,24.80204389428379,3.8850259207141136C23.065088524251614,2.6835314889720085,21.252585223176908,1.384677615994405,19.150877161674373,1.1762884339187583C17.081488170779988,0.9711037619331865,15.18036514109018,2.164533352619923,13.179941478523258,2.732667769369211C11.290306468835542,3.2693374279956116,9.083522493661086,3.1533974162576834,7.611098048015641,4.453667020683389C6.1373888616579055,5.7550711548316205,5.81227890074018,7.898898264615467,5.210259267792541,9.770540283773746C4.685773442007133,11.401134464210177,4.506188039172156,13.06999443886469,4.292964249437857,14.769540960209222C4.076392704216694,16.495771493685325,3.86190905231898,18.18137113704934,3.9369769144458715,19.919513796608783C4.027694530674838,22.02001531981152,3.4720485185885863,24.456203548492304,4.782329189843878,26.100436165066387C6.074677287193195,27.72216572289728,8.485513932314333,28.33117643812085,10.556540805891668,28.226209527214298C12.60087077317653,28.12259570922027,14.048792074619557,26.15060041336388,16,25.53188523628256" fill="#82ff1f" strokewidth="0"/>
</g>
<g id="SVGRepo_tracerCarrier" stroke-linecap="round" stroke-linejoin="round"/>
<g id="SVGRepo_iconCarrier"> <path d="M910.001 203.918C910.001 163.587 921.96 124.161 944.366 90.6273 966.773 57.0931 998.621 30.9565 1035.88 15.5225 1073.14.0883516 1114.15-3.9499 1153.7 3.91831 1193.26 11.7866 1229.59 31.2078 1258.11 59.7263 1286.63 88.2447 1306.05 124.579 1313.92 164.135 1321.78 203.692 1317.75 244.693 1302.32 281.954 1286.88 319.215 1260.74 351.062 1227.21 373.47 1193.68 395.876 1154.25 407.836 1113.92 407.836 1087.13 407.869 1060.6 402.617 1035.84 392.38 1011.09 382.144 988.596 367.124 969.654 348.182 950.712 329.241 935.692 306.748 925.457 281.993 915.22 257.237 909.967 230.706 910.001 203.918ZM167.424 913.308 458.311 622.422H1045.04L460.789 1206.68C421.886 1245.58 369.124 1267.44 314.107 1267.44 259.09 1267.44 206.327 1245.58 167.424 1206.68 128.522 1167.77 106.667 1115.01 106.667 1059.99 106.667 1004.97 128.522 952.211 167.424 913.308ZM1738.81 1027.77 1454.11 1313.21H867.136L1444.7 734.406C1483.6 695.405 1536.4 673.455 1591.49 673.386 1646.57 673.316 1699.43 695.132 1738.43 734.034 1777.43 772.936 1799.38 825.739 1799.45 880.826 1799.52 935.911 1777.71 988.769 1738.81 1027.77ZM587.075 1602.79C564.668 1636.33 552.709 1675.75 552.709 1716.08 552.709 1770.16 574.192 1822.02 612.435 1860.27 650.677 1898.51 702.543 1920 756.627 1920 796.957 1920 836.382 1908.04 869.917 1885.63 903.451 1863.23 929.588 1831.38 945.021 1794.12 960.456 1756.85 964.494 1715.85 956.625 1676.29 948.758 1636.74 929.336 1600.4 900.817 1571.89 872.299 1543.37 835.965 1523.94 796.409 1516.08 756.853 1508.21 715.851 1512.25 678.59 1527.69 641.329 1543.12 609.481 1569.25 587.075 1602.79Z"/> </g>
</svg>