<!DOCTYPE svg PUBLIC "-//W3C//DTD SVG 1.1//EN" "http://www.w3.org/Graphics/SVG/1.1/DTD/svg11.dtd">
<!-- Uploaded to: SVG Repo, www.svgrepo.com, Transformed by: SVG Repo Mixer Tools -->
<svg width="64px" height="64px" viewBox="-103.4 -103.4 1240.80 1240.80" xmlns="http://www.w3.org/2000/svg" xmlns:xlink="http://www.w3.org/1999/xlink" version="1.1" fill="#1a1a1a" stroke="#1a1a1a" stroke-width="0.01034" transform="matrix(1, 0, 0, 1, 0, 0)rotate(0)">
<g id="SVGRepo_bgCarrier" stroke-width="0" transform="translate(0,0), scale(1)">
<path transform="translate(-103.4, -103.4), scale(38.775)" d="M16,26.147622302174568C17.671390847253818,26.34176746259628,19.235454705740338,25.506928878863985,20.91148430974227,25.358051499426637C23.64796018002628,25.114977417985205,27.402704057121078,27.20760301827955,29.02517564959605,24.99062960181129C30.62228090644599,22.80831718773884,26.91019170111803,20.013467506261794,26.800352037880835,17.311400163938075C26.7142725183717,15.1938348723706,28.928862769633234,13.340187842717237,28.467498052017845,11.271701670399462C28.006915148136386,9.206720687872359,26.05483915915134,7.835876860898834,24.394425856463748,6.524651962643551C22.791856594022555,5.259106381498044,20.921547584622267,4.51047240123346,19.006866965523923,3.8006611687727414C16.903837731506314,3.0210252558120088,14.701825498835102,1.4040475266762806,12.585503497443248,2.1468431259736818C10.430428995819785,2.903240240831985,10.169914231968672,5.97499690723861,8.46901876374946,7.499279462772503C6.781434374012241,9.011633099037365,3.991523056717474,9.082253309149312,2.7391304338506153,10.970815543177348C1.458472298270819,12.902001135775556,0.5472528829395744,15.716668377945755,1.678635785934139,17.738928445320177C2.9366475481715737,19.98752787556304,6.308906656963661,19.788879987498003,8.463251275165764,21.20224202803818C9.717340695608812,22.024989868528277,10.398933621481238,23.459750405874075,11.652955775749433,24.28260076900388C12.990674282718967,25.16037007752754,14.410695485113974,25.963012113295964,16,26.147622302174568" fill="#82ff1f" strokewidth="0"/>
</g>
<g id="SVGRepo_tracerCarrier" stroke-linecap="round" stroke-linejoin="round"/>
<g id="SVGRepo_iconCarrier"> <path fill="#1a1a1a" d="M500 175q-115 0 -215 58q-96 56 -152 153q-58 99 -58 214q0 108 52 203q49 92 136 150q89 60 195 70v0q0 -113 -58 -224q-37 -71 -90 -130l-4 -7q-5 -8 -6 -17q-2 -12 2 -23l79 -200l5 -9q6 -11 15 -18q12 -9 27 -9h144q15 0 27 9q9 7 15 18l5 9l79 200q4 11 2 23 q-1 9 -6 17l-4 7q-53 59 -90 130q-58 111 -58 224v0q106 -10 195 -70q87 -58 136 -150q52 -95 52 -203q0 -115 -58 -214q-56 -97 -152 -153q-100 -58 -215 -58zM500 533q-28 0 -47.5 19.5t-19.5 47.5q0 24 15 42.5t38 23.5v359h28v-359q23 -5 38 -23.5t15 -42.5 q0 -28 -19.5 -47.5t-47.5 -19.5z"/> </g>
</svg>